<?xml version="1.0" standalone="no"?>
<!DOCTYPE svg PUBLIC "-//W3C//DTD SVG 20010904//EN"
 "http://www.w3.org/TR/2001/REC-SVG-20010904/DTD/svg10.dtd">
<svg version="1.0" xmlns="http://www.w3.org/2000/svg"
 width="400.000000pt" height="400.000000pt" viewBox="0 0 400.000000 400.000000"
 preserveAspectRatio="xMidYMid meet">

<g transform="translate(0.000000,400.000000) scale(0.100000,-0.100000)"
fill="#000000" stroke="none">
<path d="M1750 3895 c-609 -85 -1147 -464 -1428 -1004 -53 -103 -74 -150 -127
-292 -54 -143 -95 -406 -95 -605 1 -306 62 -573 195 -842 453 -916 1518 -1318
2459 -928 703 292 1175 1002 1176 1769 0 263 -66 563 -178 809 -112 246 -329
522 -549 697 -209 167 -495 304 -758 366 -190 44 -496 57 -695 30z m462 -156
c57 -6 162 -26 233 -44 325 -83 593 -240 832 -489 228 -237 382 -531 455 -864
16 -74 22 -145 25 -302 4 -179 2 -221 -17 -334 -95 -564 -454 -1042 -970
-1293 -74 -36 -313 -123 -339 -123 -5 0 -19 42 -32 93 -21 79 -24 116 -24 262
0 201 4 220 112 550 99 300 113 361 119 525 7 158 -12 271 -71 429 -19 51 -35
97 -35 101 0 3 25 14 54 24 106 33 206 129 302 289 21 34 46 72 55 85 17 23
17 25 -12 70 -16 26 -35 54 -41 63 -8 12 -2 27 31 70 22 30 48 74 57 99 16 46
76 391 70 398 -3 2 -13 -1 -25 -7 -11 -6 -79 -24 -151 -41 -154 -34 -222 -63
-282 -118 l-43 -40 -75 26 c-67 23 -89 26 -210 26 -109 -1 -148 -5 -205 -22
-57 -18 -72 -20 -80 -9 -88 116 -157 151 -477 240 -77 21 -88 22 -88 8 1 -79
23 -308 36 -356 22 -87 60 -165 101 -207 l35 -36 -19 -29 c-11 -15 -29 -47
-41 -70 l-22 -43 29 -32 c15 -18 54 -71 87 -118 76 -110 147 -178 229 -220 36
-18 65 -36 65 -40 0 -4 -12 -25 -27 -46 -45 -66 -102 -195 -123 -278 -40 -158
-21 -382 50 -593 16 -48 28 -89 26 -90 -7 -7 -55 66 -90 134 -44 89 -82 232
-92 347 -4 53 -11 86 -18 86 -6 0 -39 -18 -73 -40 -323 -212 -411 -751 -191
-1185 49 -96 94 -167 149 -229 23 -26 40 -49 37 -51 -7 -7 -169 54 -275 105
-335 160 -610 426 -787 760 -104 199 -162 385 -191 620 -20 163 -19 248 4 422
53 392 214 725 488 1004 377 385 901 571 1445 513z m-147 -963 c69 -32 194
-114 195 -128 0 -12 -73 -28 -130 -28 -101 1 -192 50 -228 124 -22 42 -28 77
-16 89 9 8 99 -20 179 -57z m595 -1 c0 -78 -36 -124 -109 -138 -41 -8 -111 2
-111 16 0 23 182 167 212 167 4 0 8 -20 8 -45z m-220 -540 c0 -3 -18 -12 -40
-21 -33 -13 -42 -23 -52 -56 -12 -40 -9 -73 53 -552 10 -81 19 -160 19 -175 0
-19 -19 -50 -61 -100 l-62 -73 -64 64 c-35 34 -66 72 -69 83 -2 11 5 83 15
160 11 77 32 226 46 330 14 105 28 197 31 206 7 25 -26 99 -45 100 -9 0 -34 7
-56 14 -37 12 -31 13 70 8 61 -2 128 0 150 5 48 12 65 14 65 7z"/>
</g>
</svg>
